/* XPM */
static char *_7ce504638d3476197c612e6d0bc1155nQVp4ygtXJglBnWM[] = {
/* columns rows colors chars-per-pixel */
"64 64 2 1 ",
"  c #100820",
". c #054494",
/* pixels */
"................................................................",
"..      ..                                 .                   .",
"..      ..                                 .                   .",
"..      ..                                 .                   .",
".       ..                                ..                   .",
".       ..                                ..                   .",
".       ..                                ..                   .",
".       ..                    ..          ...                  .",
".       ..                                ...               .  .",
"................................................................",
" ........ ... ...............................................  .",
"    ..     ..               ..                         ..       ",
"         ...                .                           .       ",
"        .  .  .        .    .                           .       ",
"                           ..                           .       ",
"                            .                          ..       ",
"                           ..                          ..       ",
" .......  .                 ...       ....             ..       ",
"................................................................",
"...   ...    ....... ................                  .    ....",
"                           ..                                 ..",
"                           ..                                 . ",
"                           ..                                 . ",
"          .                ..                                 . ",
"                     . .........     . .........             .. ",
"................................................................",
"....................... .............. ..........  .... ........",
"        ...... . ..  ..           .                             ",
"         ..                      ...                            ",
"         ..       ..     .        .                             ",
"         ..        .       .     ...                            ",
"         ..                      ...                            ",
"         ..                       ..                            ",
"         .                        ..                            ",
"         ..                 .  . ..... ..................       ",
" ...  .. .......................................................",
".................... ........   .  ...             ...  . ......",
"                          ...                             ..    ",
"                          ...                             ..    ",
"                          ...                             .     ",
"                          ...                             .     ",
"                          ...                             .     ",
"                          ..                              .     ",
"                          ...                             .     ",
"                          .... .. .... ....................     ",
"................................................................",
"         ...   .....  .. ..  .     . .      .....  .... .  .....",
"          ..                     .         ..         ..       .",
"          ..                               ..                  .",
"          ..                               ..                  .",
"          ..                               ...                 .",
".         ..                               ..                  .",
"          ..                                                   .",
"         ...                               ...                 .",
".......................................... .....................",
" ... .. ........    . ....... ....  . ..........................",
"                           ..                        ...        ",
"                           .                          ..        ",
"                           .                           .        ",
"                           .                           .        ",
"                           .                           ..       ",
"                          ..                           ..       ",
"    .                     ....                         ..       ",
".  .... ........................................................"
};
