/* XPM */
static char *_dbefb9c081541d3d9ede463afd18bd8NEBiTCX6A9GcI8zY[] = {
/* columns rows colors chars-per-pixel */
"64 64 193 2 ",
"   c #000000",
".  c #080707",
"X  c #080807",
"o  c #0A0A09",
"O  c #0E1112",
"+  c #121415",
"@  c #181817",
"#  c #151719",
"$  c #171A1B",
"%  c #1B1C1B",
"&  c #1E2223",
"*  c #212424",
"=  c #232728",
"-  c #262B2C",
";  c #2A2C2D",
":  c #2C302D",
">  c #3E3E2A",
",  c #292E31",
"<  c #2D3233",
"1  c #2F3639",
"2  c #313435",
"3  c #313638",
"4  c #34393C",
"5  c #3C3E3D",
"6  c #5C5B21",
"7  c #494934",
"8  c #4F513B",
"9  c #50513C",
"0  c #6B723B",
"q  c #4A4E4B",
"w  c #4C514E",
"e  c #535542",
"r  c #545946",
"t  c #545B48",
"y  c #5A5E4B",
"u  c #4C5354",
"i  c #4D5558",
"p  c #565B5B",
"a  c #5F6250",
"s  c #5D625B",
"d  c #666B5A",
"f  c #67725F",
"g  c #5A5E61",
"h  c #5D6265",
"j  c #616566",
"k  c #656C65",
"l  c #636769",
"z  c #656A6D",
"x  c #686D6D",
"c  c #6C7262",
"v  c #6D736B",
"b  c #6D7A69",
"n  c #717766",
"m  c #727A66",
"M  c #737C6A",
"N  c #666E71",
"B  c #6A6E71",
"V  c #677072",
"C  c #6B7274",
"Z  c #6F787B",
"A  c #747C73",
"S  c #767B74",
"D  c #747C7E",
"F  c #7A8766",
"G  c #76826D",
"H  c #79826E",
"J  c #768173",
"K  c #7D8574",
"L  c #7F8873",
"P  c #75827B",
"I  c #7C867A",
"U  c #7E8A7D",
"Y  c #838D6E",
"T  c #84916A",
"R  c #89956C",
"E  c #808675",
"W  c #838C75",
"Q  c #80837E",
"!  c #838B7B",
"~  c #898C7B",
"^  c #859171",
"/  c #8A9574",
"(  c #87917F",
")  c #88907F",
"_  c #8E9978",
"`  c #919C7A",
"'  c #7A7F81",
"]  c #7B8583",
"[  c #778884",
"{  c #7C8B84",
"}  c #7E8D8B",
"|  c #7F918E",
" . c #7D9090",
".. c #828683",
"X. c #848C83",
"o. c #8A8F80",
"O. c #848B8C",
"+. c #8C8E8E",
"@. c #869284",
"#. c #8C9484",
"$. c #83928B",
"%. c #8B948C",
"&. c #8D9A8C",
"*. c #919789",
"=. c #939A8C",
"-. c #858E92",
";. c #8D8F90",
":. c #859494",
">. c #8B9494",
",. c #869995",
"<. c #8C9A95",
"1. c #86979C",
"2. c #8B979A",
"3. c #8C9B9D",
"4. c #929694",
"5. c #949D92",
"6. c #9A9F92",
"7. c #90969A",
"8. c #929C9C",
"9. c #999D9C",
"0. c #8FA09F",
"q. c #95A195",
"w. c #9BA196",
"e. c #94A39C",
"r. c #9CA49B",
"t. c #9DA99F",
"y. c #A1A79B",
"u. c #A0A79D",
"i. c #A2A99E",
"p. c #8D9CA1",
"a. c #919EA4",
"s. c #8DA0A1",
"d. c #94A3A5",
"f. c #9AA4A5",
"g. c #97A9A5",
"h. c #9DA9A2",
"j. c #9CAAA5",
"k. c #95A5A9",
"l. c #9BA6AA",
"z. c #97A9AB",
"x. c #9DAAAD",
"c. c #9EADB1",
"v. c #9FB0B3",
"b. c #A1A6A5",
"n. c #A2ACA3",
"m. c #A8AEA5",
"M. c #A1A7A9",
"N. c #A3ABAC",
"B. c #A9AEAC",
"V. c #A9B0A6",
"C. c #A1B2AD",
"Z. c #A4B2AC",
"A. c #ACB3AB",
"S. c #B0B6AE",
"D. c #A2ADB2",
"F. c #AAAFB1",
"G. c #A5B5B2",
"H. c #A4B2B4",
"J. c #AAB3B5",
"K. c #A7B8B5",
"L. c #ABB9B5",
"P. c #A5B5B9",
"I. c #ACB6BA",
"U. c #ACBABC",
"Y. c #B1B6B1",
"T. c #B4BAB4",
"R. c #B9BEB7",
"E. c #B1B6BA",
"W. c #B2BABD",
"Q. c #BABEBB",
"!. c #AFC0BE",
"~. c #B4C1BE",
"^. c #BDC1BE",
"/. c #AEBCC1",
"(. c #B5BDC3",
"). c #B9BEC3",
"_. c #AFC0C1",
"`. c #B5C1C5",
"'. c #BBC3C5",
"]. c #BCC8C7",
"[. c #B6C2C9",
"{. c #BAC3C9",
"}. c #B7C8C9",
"|. c #BCCACB",
" X c #BECED0",
".X c #C2C5C5",
"XX c #C3C6C9",
"oX c #C5C9CC",
"OX c #C3D0CE",
"+X c #C5D2D3",
"@X c #C7D6D8",
"#X c #C9D6D9",
"$X c #CCDADC",
/* pixels */
"G G G G G G H H L H Y L W W ! K M M E E M E E E E E E E E K H M H E E E E K E K I I I I I I I U U U { U { { { { | | | 0.| | | G ",
"m f f m m G G m G G M M M M m n f f n M n n n M n M M K E E K c E Q ~ ~ E K K Q E E W E ! ! { ~ X.@.$.%.&.&.q.q.q.0.C.K.G.C.,.U ",
"G M ^ ( ( L U ^ L ( W ( ~ #.) ~ K ! ~ ~ W ~ ! o.#.*.*.6.w.6.6.~ *.6.w.w.*.*.=.=.=.5.5.5.8.e.w.e.t.t.h.h.j.C.C.C.C.v.}.}.!.!.q.U ",
"L J @.@.&.@.( ( ( @.@.) #.#.#.#.X.! ! ~ ~ o.#.*.*.*.*.w.y.w.y.~ 6.6.w.w.6.5.6.5.5.5.e.w.w.r.f.h.h.j.j.C.C.C.G.K.K.!.}. X}.}.q.&.",
"U I &.&.&.&._ @.#.#.#.#.*.*.*.*.*.#.o.#.#.*.=.6.=.6.6.y.y.y.y.o.w.y.y.y.r.w.w.w.w.r.t.t.n.j.n.n.C.n.Z.Z.K.K.L.L.!.!.|. X X}.t.U ",
"( U =.=.=.&.&.&.=.=.=.*.=.5.=.q.6.=.=.=.6.6.6.w.6.6.w.i.m.i.m.o.w.i.n.n.t.r.u.u.t.h.n.n.n.n.C.Z.Z.G.S.L.L.U.U.!.!.!.|. X X Xg.&.",
"&.{ q.q.w.q.q.q.q.q.q.w.w.w.w.w.w.w.w.6.w.w.w.w.y.w.w.m.m.m.V.o.y.m.V.V.i.y.i.h.h.n.n.m.B.C.Z.A.K.K.L.L.U.!.!.!.!.}.|.+X@X Xj._ ",
"&.@.t.t.t.&.L I J J A C A A v v v x x k k d j s s s *.m.A.A.A.*.i.V.A.A.u.p q q w w w w w w u u u u u u u u u u u 0.+X+X@X XC.,.",
"q.&.t.h.i.<.= o o o o o o . .   .       .           S S.S.S.Y.*.n.S.S.S.u.%                                       Z @X@X#X+Xn.&.",
"t.<.n.V.n.<.%                                     . S Y.Y.T.T.4.m.S.Y.R.b.%                                       P $X@X$X+XC.&.",
"t.q.Z.Z.Z.e.%                                     . S R.R.R.R.4.V.T.R.Q.b.%                                       D #X#X$XOXC.&.",
"t.0.A.A.A.e.&                                     . Q R.R.R.Q.w.A.R.R.Q.m.%                                       D $X$X$X+XG.q.",
"C.e.L.L.L.h.&                                     . Q Q.Q.^.Q.9.Y.Q.^.^.m.%                                       ' $X$X$X+XG.=.",
"Z.t.S.L.L.j.*                                     . Q ^.^.^.^.9.Y.^.Q.'.B.%                                       I $X$X$X@XG.&.",
"G.t.!.!.!.j.*                                     . o..X^..X^.y.T.Q..X.XB.%                                       D $X$X$X+XZ.&.",
"L.t.S.~.W.N.*                                     . ...X^..X.X9.Q..X.X.XJ.%                                       ' $X$X$XOXZ.&.",
"!.h.W.~.~.H.*                                     o 4.XX.X.X.Xb.Q..X.XXXY.%                                       D $X$X$XOXG.5.",
"!.C.~.'.^.G.-                                     o 6.XX.X.X.Xb.Q..XXXXXY.%                                       ' $X$X$XoXG.=.",
"~.Z.^.'.'.K.-                                     o *.oXXXXXXXb.Q..XXXoXJ.%                                       D #X#X$XoXG.=.",
"~.Z.`.'.'.I.-                                     . ;.oXXXXXXXm.Q..XXXoXY.%                                       D #X#X#X|.G.%.",
"W.H.'.].'.I.-                                     . 4.oXoXXXXXM.Q.XXoXoXY.%                                       Z #X+X@X].G.%.",
"`.K.'.].'.I.<                                     . ;.oXoXXXXXM.Q.XXXXoXF.%                                       D @X+X@X].Z.@.",
"~.K.'.{.{.U.<                                     . ;.oXoXXXXXM.^.XXXXoXJ.@                                       C |.+X+X].C.@.",
"'.K.{.].{.U.<                                   . o ;.oXXXXXXXM.Q.XXoXoXF.%                                       B [.|.|.`.N.X.",
"'.K.'.{.{./.<                                     X ;.oXXXXXXXM.)..XXXoXF.@                                       V }.}.|.~.x.( ",
"].K.'.{.{./.1                                     X ;.oXXX.X.XM.^..XXXoXF.$                                       C }.].|.U.j.X.",
"].P.[.{.{./.1                                     . ;.oXXX.X.XN.)..X.XoXF.@                                       C {.[.[.I.j.U ",
"].P.'.}.[.(.3                                     . ;.oX.X).).M.Q.W.).XXB.%                                       V [.`.`.G.j.U ",
"].I.`.{.[.(.4                                     o +.oXF.F.Q.f.J.M./.XXB.+                                       N _._._.C.d.U ",
"}.P.`.[.`./.4                                     X ;.).J.J.W.a.B.B.I.XXN.@                                       z _._.!.c.d.U ",
"|.P.`.'.[./.g - : : ; ; ; , ; < < < ; 2 < 2 : 2 2 4 9.Q.N.7.E.9.B.7.F.).F.5 ; : ; ; ; ; ; ; ; ; - ; - - - , - - - [ !.K.U.j.0.U ",
"].I.`.`.[.(.P.P.K.J.I.H.J.J.J.J.J.J.J.J.J.E.E.E.E.E.W.Q.N.7.E.9.B.4.D..X).E.E.E.E.E.E.I.I.I.I.I.I.I.I.I.P.I.U.I.P.I.P.P.K.g.0.I ",
"[.P./.[.[.(.[.).[.(.(.(.[.(.(.(.(.(.(.).(.)..X).{.).).Q.M.2.E.8.B.4.l.).).{..X).).{.{.{.{.{.{.{.[.{.{.[.[.[.[.[.[.[.P.v.P.z.s.P ",
"{././.[.[.(.[.[.[.[.[.[.(.(.(.(.(.).(.(.).).(.'..X).).W.b.>.E.8.B.>.-.7.).{.{.{.{.{.{.).).{.{.[.[.{.[.[.[.[.[.[.[./.v.v.v.s.0.P ",
"|.P./.[.(.[.[.[.[.).[.(.).).(.(.(.).(.(.(.).).).).).).E.b.;.J.7.M.%.8.B.).).).{.).{.{.{.{.{.).).(.[.).[./.[.[.[.[./.z.v.x.0.0.J ",
"}.P./.[.(./.(.[.[.[.(.[.(.(.(.(.(.E.).).(.).).).).).Q.E.f.-.F.4.M.+.l.(.).).XX{.{.{.{.{.{.).{.{.[.[.).[.[.[.[./.[.P.z.z.z.3.,.J ",
"].P.U.`././.-.V N N N N z B z z x x B x x x B B B B 9.E.u.+.F.7.b.+.a.(.H.B B z z z z z z z z z V N N N z z N z Z x.z.z.z.3.,.M ",
"{.P.U.(././.i                                       l (.a.O.F.4.b.+.a.(.p.o                       .             & a.k.k.k.,.1.M ",
"{.P.P.(././.i                                       l E.9...F.4.b...l.).7.o                                     & p.k.p.s.,.,.v ",
"}.P.P./././.i                                       l (.M.9.J.7.M.f.J.).7.O                                     & p.k.s.p.:.,.c ",
"'.P.K./.U./.u                                       l ).(.W.E.8.E.).).'.7.o                                     & p.d.p.p.:.| c ",
"}.P.P./././.i                                       l ).W.W.E.8.E.W.(.(.2.o                                     & p.s.s.p.:.| c ",
"`.P.P.U.U./.i                                       j (.W.E.E.8.I.W.(.(.>.o                                     & 1.p.3.3. . .d ",
"`.K.H.U.I./.i                                       j (./.E.E.8.J.E.(.(.>.o                                     & 1.p.p.3. .$.d ",
"`.v.H.U.U./.i                                       l /./././.7.J.(./.(.;..                                     & 3.3.3.3.| } a ",
"`.P.v.U.U.P.i                                       l (.F./.J.7.J.E.I.(.;.o                                     & 2.0.0.3.| } a ",
"_.P.c.U.U.U.i                                       g (./.E.D.7.J.I./.(.-..                                     & ,.3.3.3.| [ y ",
"!.P.c.U.P.I.i                                       h (.F.E./.7.J./.E.E.O..                                     * 2.3.3.3.O.{ y ",
"!.P.x.U.P.I.i                                       h /./.F./.7.J.I.I.E.O.X                                     * 2.d.3.3.| [ y ",
"!.v.x.P.I.I.u                                       g /.J./.F.7.J.I.I./.O.X                                     & 2.8.3.,.{ { t ",
"U.c.g.K.P.P.u                                       g I.D.J.J.7.D.I.J.I....                                     & 2.8.e.3.{ ] r ",
"U.v.j.P.H.P.u                                       g I./.J.D.7.D.I.J.J....                                     & >.8.3.<.{ [ r ",
"K.v.d.K.H.P.u                                       g I.H.F.P.-.D.I.F.I.] .                                     & >.e.8.<.} ] e ",
"G.v.g.v.v.H.u                                       g J.H.H.D.;.D.F.J.D.D .                                     * 2.3.8.,.X.] e ",
"G.c.k.v.H.v.u                                       g H.D.D.D.;.D.J.D.H.D .                                     & >.8.3.,.{ I e ",
"G.x.d.v.c.H.w                                       g J.D.D.D.-.l.D.D.D.D .                                     & %.8.8.,.{ P 8 ",
"C.z.d.c.c.v.V 1 3 3 3 1 3 3 3 3 1 1 3 1 1 2 1 , < , C D.D.D.l.-.l.D.D.D...% $ $ # # # + + + + + + + O + + + O O < >.8.<.&.{ I 8 ",
"C.z.s.c.x.v.z.z.c.c.c.c.c.c.D.l.x.l.D.l.l.D.c.l.x.l.D.D.M.D.l.-.l.D.M.D.D.a.a.a.a.p.a.p.p.2.2.2.:.:.1.:.:.:.:.:.,.3.8.8.,.[ P 8 ",
"C.k.s.x.v.v.v.v.H.P.D.D.D.D.D.D.D.x.l.D.D.D.D.D.D.D.D.l.l.l.l.-.a.M.l.D.D.D.D.H.D.F.D.D.D.D.D.D.D.D.C.D.H.x.x.N.j.e.8.<.%.{ A 9 ",
"g.d.0.x.x.x.v.v.D.c.c.c.c.c.x.D.D.D.l.D.l.D.l.M.D.D.D.M.l.l.a.O.M.l.M.a.c.D.D.D.D.c.D.c.D.l.D.l.x.l.N.x.x.x.x.x.f.8.<.,.%.{ A 9 ",
"g.0.0.d.z.c.v.c.z.c.c.z.l.l.l.x.l.l.l.l.l.l.l.l.l.l.l.l.l.f.a.} a.f.f.f.l.x.l.l.l.c.l.l.f.f.l.l.f.f.l.l.j.j.l.f.f.8.,.,.| P P 7 ",
"g.0. .k.z.z.z.c.c.c.l.k.l.x.z.l.l.a.a.M.l.l.l.l.l.l.c.c.l.l.l.-.l.l.l.l.x.x.x.l.l.l.f.l.k.f.k.f.f.d.d.d.d.d.d.d.d.8.,.:.} P b 7 ",
"0. . . .1.0.3.p.p.p.p.p.p.p.p.p.p.2.2.1.p.p.2.2.2.p.p.p.2.p.p.} 7.a.a.p.a.a.a.a.a.a.a.a.a.a.k.d.k.d.k.a.k.k.z.z.z.d.d.s. .J k > ",
"R R F ^ R / / / / ^ _ _ _ _ ` _ ` _ _ _ / _ _ ) _ / ~ ~ / ^ ~ / _ / ^ ^ ^ W ~ Q Y Y Y W ^ W ^ ^ W ^ ^ ^ / / / / / / / T T F 0 6 "
};
