/* XPM */
static char *d5f8ce539fd844399deb32f044e32f74HVS1avZ78ULwFgf8[] = {
/* columns rows colors chars-per-pixel */
"64 64 256 2 ",
"   c black",
".  c #010101",
"X  c #020202",
"o  c gray1",
"O  c #040404",
"+  c gray2",
"@  c #060606",
"#  c #070707",
"$  c gray3",
"%  c #090909",
"&  c gray4",
"*  c #0B0B0B",
"=  c #0C0C0C",
"-  c gray5",
";  c #0E0E0E",
":  c gray6",
">  c #101010",
",  c #111111",
"<  c gray7",
"1  c #131313",
"2  c gray8",
"3  c #151515",
"4  c #161616",
"5  c gray9",
"6  c #181818",
"7  c #191919",
"8  c gray10",
"9  c #1B1B1B",
"0  c gray11",
"q  c #1D1D1D",
"w  c #1E1E1E",
"e  c gray12",
"r  c #202020",
"t  c gray13",
"y  c #222222",
"u  c #232323",
"i  c gray14",
"p  c #252525",
"a  c gray15",
"s  c #272727",
"d  c #282828",
"f  c gray16",
"g  c #2A2A2A",
"h  c gray17",
"j  c #2C2C2C",
"k  c #2D2D2D",
"l  c gray18",
"z  c #2F2F2F",
"x  c gray19",
"c  c #313131",
"v  c #323232",
"b  c gray20",
"n  c #343434",
"m  c #353535",
"M  c gray21",
"N  c #373737",
"B  c gray22",
"V  c #393939",
"C  c #3A3A3A",
"Z  c gray23",
"A  c #3C3C3C",
"S  c gray24",
"D  c #3E3E3E",
"F  c #3F3F3F",
"G  c gray25",
"H  c #414141",
"J  c gray26",
"K  c #434343",
"L  c #444444",
"P  c gray27",
"I  c #464646",
"U  c gray28",
"Y  c #484848",
"T  c #494949",
"R  c gray29",
"E  c #4B4B4B",
"W  c #4C4C4C",
"Q  c gray30",
"!  c #4E4E4E",
"~  c gray31",
"^  c #505050",
"/  c #515151",
"(  c gray32",
")  c #535353",
"_  c gray33",
"`  c #555555",
"'  c #565656",
"]  c gray34",
"[  c #585858",
"{  c gray35",
"}  c #5A5A5A",
"|  c #5B5B5B",
" . c gray36",
".. c #5D5D5D",
"X. c gray37",
"o. c #5F5F5F",
"O. c #606060",
"+. c gray38",
"@. c #626262",
"#. c gray39",
"$. c #646464",
"%. c #656565",
"&. c gray40",
"*. c #676767",
"=. c #686868",
"-. c DimGray",
";. c #6A6A6A",
":. c gray42",
">. c #6C6C6C",
",. c #6D6D6D",
"<. c gray43",
"1. c #6F6F6F",
"2. c gray44",
"3. c #717171",
"4. c #727272",
"5. c gray45",
"6. c #747474",
"7. c gray46",
"8. c #767676",
"9. c #777777",
"0. c gray47",
"q. c #797979",
"w. c gray48",
"e. c #7B7B7B",
"r. c #7C7C7C",
"t. c gray49",
"y. c #7E7E7E",
"u. c gray50",
"i. c #808080",
"p. c #818181",
"a. c gray51",
"s. c #838383",
"d. c #848484",
"f. c gray52",
"g. c #868686",
"h. c gray53",
"j. c #888888",
"k. c #898989",
"l. c gray54",
"z. c #8B8B8B",
"x. c gray55",
"c. c #8D8D8D",
"v. c #8E8E8E",
"b. c gray56",
"n. c #909090",
"m. c gray57",
"M. c #929292",
"N. c #939393",
"B. c gray58",
"V. c #959595",
"C. c gray59",
"Z. c #979797",
"A. c #989898",
"S. c gray60",
"D. c #9A9A9A",
"F. c #9B9B9B",
"G. c gray61",
"H. c #9D9D9D",
"J. c gray62",
"K. c #9F9F9F",
"L. c #A0A0A0",
"P. c gray63",
"I. c #A2A2A2",
"U. c gray64",
"Y. c #A4A4A4",
"T. c #A5A5A5",
"R. c gray65",
"E. c #A7A7A7",
"W. c gray66",
"Q. c #A9A9A9",
"!. c #AAAAAA",
"~. c gray67",
"^. c #ACACAC",
"/. c gray68",
"(. c #AEAEAE",
"). c #AFAFAF",
"_. c gray69",
"`. c #B1B1B1",
"'. c #B2B2B2",
"]. c gray70",
"[. c #B4B4B4",
"{. c gray71",
"}. c #B6B6B6",
"|. c #B7B7B7",
" X c gray72",
".X c #B9B9B9",
"XX c gray73",
"oX c #BBBBBB",
"OX c #BCBCBC",
"+X c gray74",
"@X c gray",
"#X c gray75",
"$X c #C0C0C0",
"%X c #C1C1C1",
"&X c gray76",
"*X c #C3C3C3",
"=X c gray77",
"-X c #C5C5C5",
";X c #C6C6C6",
":X c gray78",
">X c #C8C8C8",
",X c gray79",
"<X c #CACACA",
"1X c #CBCBCB",
"2X c gray80",
"3X c #CDCDCD",
"4X c #CECECE",
"5X c gray81",
"6X c #D0D0D0",
"7X c gray82",
"8X c #D2D2D2",
"9X c LightGray",
"0X c gray83",
"qX c #D5D5D5",
"wX c gray84",
"eX c #D7D7D7",
"rX c #D8D8D8",
"tX c gray85",
"yX c #DADADA",
"uX c gray86",
"iX c gainsboro",
"pX c #DDDDDD",
"aX c gray87",
"sX c #DFDFDF",
"dX c gray88",
"fX c #E1E1E1",
"gX c #E2E2E2",
"hX c gray89",
"jX c #E4E4E4",
"kX c gray90",
"lX c #E6E6E6",
"zX c #E7E7E7",
"xX c gray91",
"cX c #E9E9E9",
"vX c #EAEAEA",
"bX c gray92",
"nX c #ECECEC",
"mX c gray93",
"MX c #EEEEEE",
"NX c #EFEFEF",
"BX c gray94",
"VX c #F1F1F1",
"CX c gray95",
"ZX c #F3F3F3",
"AX c #F4F4F4",
"SX c gray96",
"DX c #F6F6F6",
"FX c gray97",
"GX c #F8F8F8",
"HX c #F9F9F9",
"JX c gray98",
"KX c #FBFBFB",
"LX c gray99",
"PX c #FDFDFD",
"IX c #FEFEFE",
"UX c white",
/* pixels */
"8 8 8 8 8 8 8 8 8 8 8 8 6 5 6 6 6 6 6 6 6 6 6 6 6 6 6 6 6 6 6 6 6 6 6 6 6 6 6 6 6 6 6 6 6 6 6 6 6 6 5 6 8 8 8 8 8 8 8 8 8 8 8 8 ",
"s k l l l l l l l l l g s j l z z z z z z z z z z z z z z z z z z z z z z z z z z z z z z z z z z l j s g l l l l l l l l l k s ",
"h b n n n n n n n n n z g x b n n n n n n n n n n n n n n n n n n n n n n n n n n n n n n n n n n b x g z n n n n n n n n n b h ",
"h b n n n n n n n n n z g z v b n n b n n n n n n n n n n n n n n n n n n n n n n n n n n n n b n v z g z n n n n n n n n n b h ",
"h b n n b b n n n b n z f z v b b b b b b b b b b b b b n b b b b b b b b b b b b b b b b b b b b v z g z n n n b b n n b n b h ",
"h b n n n n n n n b n z f z b m m m m m m m m m m m m m m m m m m m m m m m m m m m m m m m m m m b x g z n n n n b n n n n b h ",
"h b n n n n n n n n n l S [ O.$.%.%.%.%.%.%.%.%.%.%.%.%.%.%.%.%.%.%.%.%.%.%.%.%.%.%.%.%.%.%.%.%.%.@.| G l n n n n n n n n n b h ",
"h b n n n n n n n n n z p f z v v b v b b b b b b b b b b b b b b b b b v b b b b b b b b b b b v c j s z n n n n n n n n n b h ",
"h b n n n b n n n n n z t 7 0 e t t t t t t t t t t t t t t t t t t t t t t t t t t t t t t t t t e 9 w z n n n n n n b n n b h ",
"h b n n n n b n n b n z f p q r y u i i i i i i i i i i i i i i i i i i i i i i i i i i i i i i y e 9 t z n n n n b n n n n b h ",
"g v v v v v v v v v b l g z s q r u i p p p p p p p p p p p p p p p p p p p p p p p p p p p i u t q u f l b v v v v v v v b v g ",
"P X.O.O.O.O.O.+.O.O.+.( c x v d q r y i i p i p p p p p p i i p p i p p i p p p i p p i i i u r q p z c ( +.O.O.O.O.O.O.O.O.o.L ",
"_ &.&.&.&.%.O...:.4.*.o.Z c b b d q r y i p p p p p p i p p p i p p i p p p p p p p p p i u t q a v c Z o.&.&.2.<.o.$.&.&.&.&._ ",
"f l l l l j r 8 u I F z c x d j b d q r y i p p p p p p p p p p p p p p p p p p p p p i u r q a c z c c z l Z Y p w h k l l l f ",
"j v v v v c i e e s W P b j u s v b d q r y i p p p p p p p p p p p p p p p p p p p i u r q a v f r d b v G ~ h 0 u x v v v v j ",
"j b b n n v p r y t f ! I n D V b n b d q r y i p p i p p i i p p i p p p i p p i i u r q a v b v m v v H / k e e p v b b n b j ",
"j n n n n b p t u u t f ! I M n b n n b d q r y i p p p p p p p p p p p p p p p i u r q a v n b m A m H / l t y r p b n n n n j ",
"j n n b n b p t u i i t f ! I n b n n n b d q r y i i p p p p p p p p p p p p i u t q a v n n n b v H / l t u u t p b n n n n j ",
"j b n n n v p t u i i u t f ! I n b n n n b d q r y i i p p p p p p p p p i i u r q a b n n b n b H / l t u i u t p v n n n b j ",
"j n n n n b p t u p p i u t f ! I n n z a j b d q r y i p p p p p p p p p i u r q a c h l b n b H / l t u i p u t p b n n n n j ",
"j n n b n b p t u p p p i i t f ! I b h p f b b d q r y i p p p p p p p i u r q a v k t p v b H / l t u i p p u t p b n n b n j ",
"j b n n n v p t u i p p p i u t f ! I M G B b n b d q r y i i p p p p i u r q a v n b Z B v H / l t u i p p i u t p v n n n b j ",
"j n n n n b p t u i p p p p i u t f ! I m n n n n b d q r y i i p i i u r q a v n n n B m H / l t u i p i p p u t p b n n n n j ",
"j n n n n b p t u i p p p p p p i t f ! I n b n n n b d q r u i i i u r q a v n n n n b H / l t u i p p p p p u t p b n n n n j ",
"j n n b n v p t u p p p p p p p i i t f ! I n b n b v b d q r y u u r q a v n n b b b H / l t u i p p p p p p u t p b n n b b j ",
"j b n n n v p t u i p p p p p p p i u t f ! I n b f y k b d q e t r q a c g h b n b H / l t u i p p p p p p i u t p v n n n b j ",
"j n n n n b p t u i p p p p p p p p i u t f ! I b k j l b b d q w q a b l u p c b H / l t u i p p p p p p p p u t p b n n n n j ",
"j n n n n b p t u i p p p p p p p p p i u t f ! I B G m b n b d e a v n b S C v H / l t u i p p p p p p p p p u t p b n n n n j ",
"j b n n n v p t u p p p p p p p p p p p i i t f ! I b b n n n b c b n n b M m H / l t u i p p p p p p p p p i u t p v n n n b j ",
"j b n n n b p t u i p p p p p i p p i i p i u t f ! I n b n n n n n n n b b H / k t u i i p p p p p p i p p i u t p v n n n n j ",
"j n b n n b p t u i p p p p p p p p p p p p i i t f ! I n b n b v b n b n J / k t u i p p i p p p i p p p p p u t p b n n n n j ",
"j n n n n b p t u i p p p p p p p p p p p p p i u t d Y C b n h y h b b N T k r u i p p p p p p p p p p p p p u t p b n n b n j ",
"j b n n n v p t u p p p p p p p p p i p p p p p i y w r x n b k h k b n v u w t u i p p p p p p p p p p p p i u t p v n n b b j ",
"j b b n n v p t u i p i p p i i p p i p p p i i u r q a v n b N G N b n b d q r y i i p i p p i p p p i p p i u t p v n n n n j ",
"j n n n n b p t u i p p p i p p p p p p i p i u r q a v n n n b b b n b n b d q r y i p p p p p p p p p p p p u t p b n n n n k ",
"j n n n n v p t u p p p p p p p p p p p p i u t q a b n n n n b n b b n b v b d q r y i p p p p p p p p p p i u t p v n n b b j ",
"j b n n n v p t u p p p i p p i p p i i i u r q a c g j b n b J | U n b f y k b d q r y i p p i p p p i p p i u t p v n n n b j ",
"j n n n n b p t u i p p i p p i p p i i u r q a b l u p c b H ( C ~ I b k j l b b d q r y i i p p p p p p p p u t p b n n n n j ",
"j n n n n b p t u i p p p p p p p p i u r q a v n b S C v J / k w d ! P B G m b n b d q r y i p p p p p p p p u t p b n n b n j ",
"j b n n n v p t u i p p p p p p p i u t q a v n b b M m H / k r y t f ! I b b b n n b d q r y i p p p p p p i u t p v n n n n j ",
"j n n n n b p t u i p p p p p i i u r q a v n n n n b H / k t u i u t f ! I n b n n n b d q r y i i p p p p i u t p b n n n n j ",
"j n n n n b p t u i p p p p p i u t q a v b n n n b H / l t u i p i i t f ! I n b n v c b d q r y i p p p p p u t p b n n n n j ",
"j n n b n v p t u i p p p p i u t q a c d p c n b H / l t u i p p p i u t f ! I n v a t k b d q r y i p p p p u t p v n b b b j ",
"j b n n n v p t u i p p i i u r q a b c f d z b H / k t u i p p p p p i u t f ! I v z z x n b d q r y i i p i u t p v n n n b j ",
"j n n n n b p t u i p p i u r q a v n b A F b H / l t u i p p p p p p p i u t f ! I V D n b n b d q r y i p p u t p b n n n n j ",
"j n n b n b p t i p p i u r q a v n n b n b H / l t i i p p p p p p p p p p i t f ! I b b n n n b d q r y i p i t p b n n n n j ",
"j b n n n v p t u i i u r q a v n n n b b H / l t u i p p p p p p p p p p p i u t f ! I n b n n n b d q r y i u t p v n n n b j ",
"j n b n n b p t u i u r q a v b n n n b H / l t u i p p p p i p p p p p p p p i u t f ! I n b b z z b d q r y y r p b n n n n j ",
"j n b n n b p t u u t q a v d u z n b H / l t u i p p i p p p p p p p p p p p p i u t f ! I n x y y x b d q r t r p b n b n n j ",
"j b v v v c p e t r q p v v j h z b H / l t u i p p p p p p p p p p p p p p p p p i i t f ! I v M M v b v s q w w i c v v v b j ",
"g x x x x l y 0 q 9 u x v v C G n H / k t u i p p p p p p p p p p p p p i p p p p p i i t f ! I V V v v c x p 9 8 t k z x x x g ",
"t i i i i u 0 7 6 8 u p j v b b H / k t u i p p p p p p p p i p p p i p p p p p p p p i u t f ! I b v j p i u 0 5 9 y u i i i t ",
"t i i i i i i i i i i y d c v H / l t u i p p p i p p p p p p i p p i p p p i p p p p p i u t f ! P c d y i i i i i i i i i i t ",
"h b n n n n n n n n n z g z G / l t u i p p p p p p p p p p p p p p p p p p p p p p p p p i i t f W H g z n n n n n n n n n b h ",
"h b n n n n n n n n n z g S ~ k t u i p p p p p p p p p p p p p p p p p p p p p p p p p p p i u t d Y B l n n n n n n n n n b h ",
"h b n n n n n n n n n l m E j r u i i i i i i i i i i i i i i i i i i i i i i i i i i i i i i i u r p b z n n n b n n n n n b h ",
"h b n n n b n n n b n z M d w t y y y y y y y y y y y y y y y y y y y y y y y y y y y y y y y y y r q r z n n n n b n n n n b h ",
"h b n n n n n n n n n z w 6 0 q w w q w w q q w w q q w q q w w q q w q q w w q q w q q q w q q w q 8 w z n n n n n n n n n b h ",
"h b n n n n n n n n n z u u s d d d d d d d d d d d d d d d d d d d d d d d d d d d d d d d d d d s i i z n n n n n n n n n b h ",
"h b n n n n n n n n n z f z b n n n n n n n n n n n n n n n n n n n n n n n n n n n n n n n n n n b x g z n n n b n n n n n b h ",
"h b n n n b n n n b n z g z v n n n n n n n n n n n n n n n n n n n n n n n n n n n n n n n n n n v z g z n n n n b n n n n b h ",
"h v b b b b b b b b b l g z v b n b n n n b n n n n n n n n n n b n n n n n n n n n n n n n n n b v x g l b b b b b b b b b v h ",
"x F G G G G G G G G G N h z v b b b b b b b b b b b b b b b b b b b b b b b b b b b b b b b b b b v z h N G G G G G G G G G F x ",
"$.d.g.g.g.g.g.g.g.g.g.7.Y I T E E R E E E E E E R E E E R E E E E E E R E E E E E E R E E E E E E T I Y 7.g.g.g.g.g.g.g.g.g.d.$."
};
