/* XPM */
static char *_a0ed3f405e74b2882b78cdab54c99bbsCLVSJqfr7HkmL9B[] = {
/* columns rows colors chars-per-pixel */
"32 32 48 1 ",
"  c #003F23",
". c #004525",
"X c #004B26",
"o c #00462A",
"O c #004C2B",
"+ c #005126",
"@ c #00532C",
"# c #00522E",
"$ c #00552C",
"% c #00542D",
"& c #005829",
"* c #005A28",
"= c #00582B",
"- c #005C29",
"; c #005F2B",
": c #00582E",
"> c #005E2E",
", c #004532",
"< c #004931",
"1 c #004F30",
"2 c #004D34",
"3 c #004B38",
"4 c #005231",
"5 c #005630",
"6 c #005034",
"7 c #005336",
"8 c #005A31",
"9 c #005B33",
"0 c #005C32",
"q c #005C35",
"w c #005B38",
"e c #005C3C",
"r c #00602B",
"t c #00622E",
"y c #00652C",
"u c #006231",
"i c #006532",
"p c #006135",
"a c #006336",
"s c #006B32",
"d c #006E35",
"f c #00633A",
"g c #006438",
"h c #006938",
"j c #006A39",
"k c #007135",
"l c #007338",
"z c #007839",
/* pixels */
"O@OOO.O5$XXO+OO.oOoO@@$XOOoOO5@O",
"$5$5@OOOXXOX+OO..o5:OO$@:@65O754",
"@65$O@2O.Oo.XoOXOO$>O..@@@58@fp@",
"60u115q5OOOoOX.X@4@$oOoOO2$:@p8O",
"OryO1OO6O@oO<4$:O@4OOO@@14@$44OO",
"=$@OOo1OXu7548i@OO4$@.O@@@O<2@+@",
"t$OuiuquOik:$>r$4@4:@4OO:;OOo.+$",
"+@:0q:t=@:$@u>@$@$u5O....XOX...O",
"X:=@4hs$$8$@;$O$$$y=O$XOX$OO.OOO",
"X..@iltOOy:O@+$y8O$$$:OO=rOXXXo.",
"@OOya8@O:;@.X&;=@OXX;$X..X+$$@@O",
"O$::OoO@>@=$$@@@:$...XXOX+OO$4@5",
"O$>@@O@$OO$$$@X&r>@O=$OO$@49u@O@",
"OO@O4@5@X@6O@$$X=$XX$$O...O>:@OO",
"OX.ooO@OXOXoOOOO$$OOO<ooXO.OO$o.",
"O@XOOOp@OOOO@4OOO0h8fwO154@O@$XO",
"55$@58k85@<18:5Oo$pqzh81ooO@5OOO",
"544@@899h8OO0ypjupeef84@$OO@@O55",
"O8:115$5h045>859ffe3,<447$4OoO64",
"@t>O4OO$:$4Oo4$5pfw,oooO7OO2<1@X",
":+@@$O<6:$:$<45@OOOO. .@$O$u95$O",
"..X;$OOOX+=+OOOo.X;t+..@q0$5$q>$",
"O...XXXo...XO42,oo$:XO.X8:$OXtt$",
"<O..@@@$$OX=OOOoOoO@>>:O$e63o4@5",
"@OX.175$4O.XOX584OO4$ii4:85O4O@@",
"p93126q@4$@5@@7@@44<495<6@557OO$",
"u808$ty@265$450@@85144OO8kpfwOO$",
"40>$t:>OO68:OOtupk8@5@5$8kkhfOOO",
"1@O+i:O@11u434@58>@44O4O0ff6OoOO",
"OOO@$$@t86$$@OO3O+$$OOOoOOOoO,OO",
"41Oo@=@@OOX$0$OO.X:;OOXOOOOOO<OO",
"Oo. .O6O@..X+XOX..XX@4@@<O.OoOOO"
};
